<!DOCTYPE svg PUBLIC "-//W3C//DTD SVG 1.1//EN" "http://www.w3.org/Graphics/SVG/1.1/DTD/svg11.dtd">
<!-- Uploaded to: SVG Repo, www.svgrepo.com, Transformed by: SVG Repo Mixer Tools -->
<svg fill="#f1f1f1f1" width="800px" height="800px" viewBox="0 0 512 512" xmlns="http://www.w3.org/2000/svg" stroke="#f1f1f1f1" transform="matrix(1, 0, 0, 1, 0, 0)rotate(0)">
<g id="SVGRepo_bgCarrier" stroke-width="0"/>
<g id="SVGRepo_tracerCarrier" stroke-linecap="round" stroke-linejoin="round"/>
<g id="SVGRepo_iconCarrier"> <g id="Meal_application_calculate"> <path d="M336.9509,192.49a3.1448,3.1448,0,0,0,5.6763,2.4438l25.5508-37.88a6.2384,6.2384,0,0,0-5.1719-9.727H352.198a3.1447,3.1447,0,0,1-3.03-3.9866l6.823-24.5547a3.1446,3.1446,0,0,0-3.1167-3.9854l-17.8086.4921a3.1446,3.1446,0,0,0-2.9719,2.4129l-8.8426,37.0182a6.7927,6.7927,0,0,0,6.607,8.371H339.59a3.1445,3.1445,0,0,1,3.0691,3.83Z"/> <path d="M398.4827,140.867a6,6,0,1,0,11.5732-3.1719,67.2133,67.2133,0,0,0-5.51-13.8427A6,6,0,1,0,393.9583,129.5,55.195,55.195,0,0,1,398.4827,140.867Z"/> <path d="M406.7258,154.3148a5.9871,5.9871,0,0,0-6.4384,5.5273,55.4829,55.4829,0,1,1-17.4229-44.7978,6,6,0,1,0,8.1982-8.7627,67.4776,67.4776,0,1,0,21.19,54.4716A6.0007,6.0007,0,0,0,406.7258,154.3148Z"/> <path d="M405.238,240.3568a4.75,4.75,0,0,0-4.75,4.75v32.9384a4.75,4.75,0,0,0,9.5,0V245.1068A4.75,4.75,0,0,0,405.238,240.3568Z"/> <path d="M305.3564,263.5528l8.51-10.5471a4.75,4.75,0,0,0-7.3936-5.9658l-9.5811,11.875h-5.455V245.1068a4.75,4.75,0,1,0-9.5,0v32.9384a4.75,4.75,0,0,0,9.5,0v-9.63h5.56l10.4473,12.0312a4.75,4.75,0,1,0,7.1729-6.2285Z"/> <path d="M336.5261,261.5936h7.5a4.75,4.75,0,1,0,0-9.5h-7.5a15.3508,15.3508,0,0,0,0,30.7016h7.5a4.75,4.75,0,0,0,0-9.5h-7.5a5.8508,5.8508,0,0,1,0-11.7016Z"/> <path d="M389.2678,273.2952h-1.5854a3.1014,3.1014,0,0,1-3.0982-3.0981v-3.6289a15.5488,15.5488,0,1,0-31.0976,0v.6782a15.5409,15.5409,0,0,0,25.4392,11.9888,12.5478,12.5478,0,0,0,8.7566,3.56h1.5854a4.75,4.75,0,1,0,0-9.5Zm-20.2324,0a6.0555,6.0555,0,0,1-6.0488-6.0488v-.6782a6.0488,6.0488,0,1,1,12.0976,0v.6782A6.0555,6.0555,0,0,1,369.0354,273.2952Z"/> <path d="M439.3416,12.4191h-185.78a31.2327,31.2327,0,0,0-31.2324,31.2327V311.64q-1.7216.2452-3.3182.5393c-6.215-6.4845-14.8649-9.2832-22.1838-10.4251,6.4658-10.9819,8.1758-25.2519,4.1846-36.3862-3.6221-10.1055-11.292-17.1094-22.1817-20.2549-18.9052-5.4619-28.8838,2.4614-33.6845,9.0889-6.6739-8.21-16.5918-10.3037-27.5967-5.7027l-.336.1529c-13.3593,6.5766-19.6425,19.3891-17.8906,36.28-7.1152-2.5962-17.6963-3.8252-31.42,1.8037-13.7256,5.628-22.5117,17.6465-23.5029,32.1485a39.5224,39.5224,0,0,0,19.9541,36.9927c.4428.2567.8637.5262,1.2961.7891-21.164,6.6062-24.2239,13.7118-24.2239,19.0053v.5391A43,43,0,0,0,68.39,416.0623c14.5371,5.9439,40.5039,20.207,51.0732,48.95.4688,1.2735,1.2783,3.8311,1.6895,5.1524,1.4394,9.1831,11.5117,16.5708,29.9541,21.9638,16.4326,4.8062,37.9844,7.4527,60.6855,7.4527,41.0606,0,86.6817-9.0533,90.5694-28.916.5058-1.6172,1.6494-5.1827,2.3242-6.8931a74.5062,74.5062,0,0,1,13.2419-21.5893H439.3416A31.2327,31.2327,0,0,0,470.5745,410.95V43.6518A31.2328,31.2328,0,0,0,439.3416,12.4191ZM364.8684,28.0359h11.29a6,6,0,1,1,0,12h-11.29a6,6,0,0,1,0-12Zm-48.124,0H344.97a6,6,0,1,1,0,12H316.7444a6,6,0,0,1,0-12ZM279.24,332.6134q2.2914.5544,4.4769,1.1686c11.8774,3.35,17.7216,6.9918,19.9443,8.9645-1.9487,1.8809-7.1279,5.324-17.8687,8.4654-12.9741,3.7944-29.6919,5.8841-47.0752,5.8841s-34.101-2.09-47.0752-5.8841c-10.7407-3.1414-15.92-6.5845-17.8686-8.4654,2.2226-1.9727,8.0669-5.6146,19.9443-8.9645.74-.2086,1.5059-.4036,2.2661-.6016,6.8531,5.4831,22.7666,9.3291,41.3023,9.3291C256.4534,342.51,272.803,338.396,279.24,332.6134Zm-37.67-7.0045c0-2.9066,5.2173-5.263,11.6533-5.263s11.6543,2.3564,11.6543,5.263-5.2178,5.263-11.6543,5.263S241.57,328.5156,241.57,325.6089ZM127.3191,368.19a18.8813,18.8813,0,0,1,6.5339-14.455,39.2224,39.2224,0,0,1,27.3628-9.4841c1.7014,8.9982,16.4712,16.7744,37.8919,21.129-9.9883,8.1815-23.1563,13.42-33.8465,16.6132l-37.2436-.1947C127.5845,377.1359,127.3477,372.5868,127.3191,368.19ZM56.3718,319.7025a25.2016,25.2016,0,0,1,16.083-21.8638c9.4112-3.8579,17.7159-4.1367,24.6778-.8272a10.1966,10.1966,0,0,0,14.457-10.7861c-2.0693-13.1177,1.55-22.1079,10.7588-26.7256,6.5371-2.6846,10.9678-1.6118,14.3594,3.4595a10.2118,10.2118,0,0,0,17.2832-.3906c4.1523-6.97,11.1865-8.9087,21.5088-5.9273,7.1328,2.0606,11.916,6.3589,14.2158,12.7759,3.0029,8.3784,1.23,19.8745-4.3135,27.9546a10.2029,10.2029,0,0,0,7.3,15.94,37.2057,37.2057,0,0,1,11.8789,3.1206,33.2256,33.2256,0,0,0-7.2869,4.0612c-12.9489,2.9707-23.7961,7.2148-30.1613,12.1993-15.0027-1.9026-26.4495,2.0068-34.648,7.137a1.6217,1.6217,0,0,1-2.4433-1.6884c5.7334-30.2784,18.52-48.9361,18.789-49.3107a6.0054,6.0054,0,0,0-9.81-6.93c-.7522,1.0662-11.428,16.488-18.2061,42.1328a2.0514,2.0514,0,0,1-3.5234.8351,46.1478,46.1478,0,0,0-22.72-14.0979,6,6,0,0,0-2.58,11.72,34.6913,34.6913,0,0,1,22.5891,20.552,19.0953,19.0953,0,0,1,1.3555,8.9356,169.6131,169.6131,0,0,0,.0235,29.756l-14.0767-.0736a95.1766,95.1766,0,0,0-10.48-17.9711,69.464,69.464,0,0,0-21.0293-18.1938A27.5986,27.5986,0,0,1,56.3718,319.7025Zm237.1524,139.665c-1.042,2.6411-2.9248,8.916-2.9248,8.916-1.0821,6.7344-29.1006,19.2974-78.8067,19.2974-21.5927,0-41.9492-2.4751-57.3174-6.97-16.4267-4.8038-21.2353-10.2266-21.4834-12.4229,0,0-1.5136-5.2715-2.2656-7.3164-12.1582-33.063-41.4287-49.2251-57.7949-55.9165a31.0451,31.0451,0,0,1-19.5059-28.7441v-.3179c.8767-1.6726,6.812-5.76,24.0081-10.0329a49.1468,49.1468,0,0,1,4.3669,5.0275,77.0552,77.0552,0,0,1,5.3472,8.181A89.8192,89.8192,0,0,1,75.491,375.88a6,6,0,1,0-4.1328,11.2656c21.1865,7.7715,78.6962,13.1992,139.8535,13.1992,56.96,0,111.9424-4.6723,136.8174-11.6264a6,6,0,0,0-3.2305-11.5567,197.6693,197.6693,0,0,1-24.085,4.6692,130.065,130.065,0,0,0-30.2749-19.4894,85.3506,85.3506,0,0,0,10.6006-3.9584c7.7783.8588,15.17,1.832,22.064,2.9217,35.3906,5.5942,45.8652,12.3174,47.0556,14.5884v.3179a31.0449,31.0449,0,0,1-19.5068,28.7441C334.7732,411.4471,306.2371,427.1492,293.5242,459.3675ZM454.1863,406.56a17.95,17.95,0,0,1-17.95,17.95H338.8286a107.7276,107.7276,0,0,1,16.3645-8.4481,43,43,0,0,0,26.9658-39.8515v-.5391c0-7.1167-5.5088-17.5093-53.1416-25.56-4.5376-.7669-9.3156-1.477-14.2627-2.1417a10.41,10.41,0,0,0,1.6475-5.4606c0-9.8042-17.6719-18.3656-40.7437-22.9746l-.0019-.0011s-11.6148-8.3024-36.9395-8.8164V72.7339a17.95,17.95,0,0,1,17.95-17.95H436.2361a17.95,17.95,0,0,1,17.95,17.95Z"/> </g> </g>
</svg>